<?xml version="1.0" standalone="no"?>
<!DOCTYPE svg PUBLIC "-//W3C//DTD SVG 20010904//EN"
 "http://www.w3.org/TR/2001/REC-SVG-20010904/DTD/svg10.dtd">
<svg version="1.0" xmlns="http://www.w3.org/2000/svg"
 width="500.000000pt" height="500.000000pt" viewBox="0 0 500.000000 500.000000"
 preserveAspectRatio="xMidYMid meet">

<g transform="translate(0.000000,500.000000) scale(0.100000,-0.100000)"
fill="#000000" stroke="none">
<path d="M1950 4755 l0 -127 89 4 c78 3 93 6 115 27 15 14 31 42 37 62 10 31
9 43 -7 75 -30 60 -61 77 -154 82 l-80 5 0 -128z m165 50 c24 -24 31 -57 19
-90 -9 -23 -57 -45 -99 -45 l-35 0 0 80 0 80 45 0 c35 0 52 -6 70 -25z"/>
<path d="M2473 4870 c-43 -18 -58 -84 -25 -112 9 -9 37 -22 62 -29 61 -17 74
-27 58 -46 -11 -14 -40 -14 -113 -1 -14 2 -21 -3 -23 -19 -3 -18 4 -24 40 -33
82 -23 158 12 158 72 0 32 -33 58 -94 73 -31 8 -41 15 -41 30 0 18 6 20 57 19
43 -1 58 3 63 14 3 8 1 20 -4 25 -14 14 -111 19 -138 7z"/>
<path d="M2877 4874 c-4 -4 -7 -61 -7 -126 l0 -118 100 0 c93 0 100 1 100 20
0 18 -7 20 -70 20 l-70 0 0 30 0 30 60 0 c53 0 60 2 60 20 0 16 -8 19 -57 22
-55 3 -58 5 -61 30 -3 27 -3 27 65 30 60 3 68 5 68 23 0 18 -8 20 -90 23 -50
1 -94 0 -98 -4z"/>
<path d="M1986 4358 c-28 -45 -98 -217 -92 -227 12 -19 45 -7 57 21 11 26 16
28 68 28 51 0 57 -3 72 -29 12 -20 23 -28 40 -26 13 1 25 3 26 4 1 0 -12 34
-30 74 -19 39 -44 96 -57 125 -19 41 -28 52 -47 52 -13 0 -29 -10 -37 -22z
m54 -85 c8 -21 16 -41 18 -45 2 -5 -15 -8 -38 -8 -23 0 -40 3 -38 8 2 4 10 24
18 45 8 20 17 37 20 37 3 0 12 -17 20 -37z"/>
<path d="M2444 4364 c-42 -22 -64 -63 -64 -117 0 -99 112 -159 199 -106 31 19
32 22 18 36 -13 14 -20 14 -46 4 -47 -20 -90 -6 -108 36 -32 78 46 145 117
101 16 -10 23 -10 35 3 40 40 -86 76 -151 43z"/>
<path d="M2860 4256 c0 -69 3 -126 8 -127 4 0 15 -2 25 -4 15 -3 17 6 17 71 0
41 3 74 8 73 4 0 32 -31 62 -69 29 -38 62 -71 71 -73 35 -9 40 6 37 129 l-3
119 -25 0 c-24 0 -25 -3 -30 -73 l-5 -72 -60 72 c-36 43 -70 74 -83 76 -22 3
-22 2 -22 -122z"/>
<path d="M1925 3872 c-3 -3 -5 -14 -5 -24 0 -14 8 -18 40 -18 l40 0 0 -100 0
-100 31 0 31 0 -4 98 -3 97 43 3 c38 3 43 6 40 25 -3 21 -8 22 -106 23 -56 0
-104 -2 -107 -4z"/>
<path d="M2477 3874 c-4 -4 -7 -61 -7 -126 l0 -118 30 0 31 0 -3 123 c-3 114
-4 122 -23 125 -12 2 -24 0 -28 -4z"/>
<path d="M2866 3873 c-3 -3 -6 -15 -6 -25 0 -14 8 -18 40 -18 l40 0 0 -100 0
-100 30 0 30 0 0 100 0 100 41 0 c36 0 40 2 37 23 -3 21 -8 22 -104 24 -56 1
-104 -1 -108 -4z"/>
<path d="M1966 3293 c-22 -49 -45 -101 -52 -117 -19 -40 -18 -46 11 -46 18 0
28 7 35 25 9 23 15 25 68 25 53 0 60 -2 70 -25 9 -19 19 -25 41 -25 30 0 33
12 11 45 -3 6 -26 54 -50 108 -39 87 -46 97 -69 97 -24 0 -31 -9 -65 -87z
m104 -69 c0 -2 -16 -4 -35 -4 -40 0 -44 13 -19 62 l16 31 19 -43 c10 -23 19
-44 19 -46z"/>
<path d="M2400 3255 l0 -125 99 0 c94 0 99 1 94 20 -5 17 -14 20 -69 20 l-64
0 0 30 c0 30 1 30 53 30 61 0 67 3 60 31 -4 16 -14 19 -59 19 -51 0 -54 1 -54
25 0 24 2 25 65 25 63 0 65 1 65 25 0 25 0 25 -95 25 l-95 0 0 -125z"/>
<path d="M2847 3373 c-4 -3 -7 -60 -7 -125 l0 -118 30 0 c29 0 30 1 30 50 l0
50 60 0 60 0 0 -50 c0 -49 1 -50 30 -50 l31 0 -3 123 -3 122 -27 3 c-27 3 -28
2 -28 -47 l0 -51 -60 0 -60 0 0 50 c0 46 -2 50 -23 50 -13 0 -27 -3 -30 -7z"/>
<path d="M2392 2748 l3 -123 27 -3 27 -3 3 78 3 78 64 -77 c38 -46 71 -78 82
-78 18 0 19 10 19 125 l0 125 -25 0 c-23 0 -24 -3 -27 -72 l-3 -71 -59 71
c-48 59 -63 72 -87 72 l-30 0 3 -122z"/>
<path d="M2890 2784 c0 -117 21 -153 94 -161 52 -6 103 17 116 53 6 14 10 63
10 110 0 82 -1 84 -24 84 -23 0 -24 -3 -28 -84 -5 -97 -17 -118 -62 -114 -41
4 -56 36 -56 126 0 70 -1 72 -25 72 -25 0 -25 -1 -25 -86z"/>
<path d="M2491 2363 c-87 -43 -95 -165 -14 -219 37 -24 120 -25 157 0 27 17
27 18 10 37 -16 17 -19 18 -40 4 -34 -22 -72 -18 -99 10 -31 30 -32 73 -4 110
19 23 27 26 58 21 84 -12 86 -12 86 9 0 42 -91 59 -154 28z"/>
<path d="M2933 2370 c-42 -17 -58 -84 -25 -112 9 -8 37 -21 62 -28 61 -18 74
-29 58 -47 -11 -14 -40 -14 -113 -1 -27 4 -34 -38 -8 -45 77 -22 143 -14 169
20 34 46 -4 105 -75 117 -86 13 -69 63 18 53 43 -5 50 -3 54 14 4 15 -1 23
-19 30 -31 11 -91 11 -121 -1z"/>
<path d="M2454 1867 c-2 -7 -3 -65 -2 -128 l3 -114 95 0 c91 0 95 1 98 23 3
21 0 22 -67 22 l-71 0 0 30 0 30 60 0 c53 0 60 2 60 20 0 16 -8 19 -57 22 -55
3 -58 4 -61 31 l-3 27 65 0 c64 0 66 1 66 25 0 25 -1 25 -90 25 -66 0 -92 -4
-96 -13z"/>
<path d="M3000 1756 c0 -69 4 -127 9 -130 5 -4 16 -3 25 0 13 5 16 26 16 130
l0 124 -25 0 -25 0 0 -124z"/>
<path d="M2956 1328 c-63 -138 -86 -191 -86 -194 0 -2 13 -4 30 -4 23 0 31 5
36 25 6 23 10 25 68 25 57 0 64 -2 74 -25 8 -17 20 -25 37 -25 14 0 25 3 25 8
0 4 -23 60 -51 125 -49 110 -54 117 -81 117 -24 0 -31 -7 -52 -52z m72 -51
c17 -46 16 -47 -23 -47 -19 0 -35 2 -35 5 0 10 34 75 40 75 3 0 11 -15 18 -33z"/>
<path d="M2976 880 c-41 -13 -66 -39 -66 -70 0 -38 19 -57 74 -73 83 -23 88
-75 6 -62 -69 11 -74 10 -78 -7 -8 -40 126 -53 172 -17 29 23 35 68 12 92 -16
15 -55 32 -98 41 -19 4 -28 13 -28 26 0 25 39 36 80 22 26 -10 31 -8 41 10 12
22 -1 37 -31 38 -8 0 -24 2 -35 5 -11 2 -33 0 -49 -5z"/>
<path d="M2900 355 c0 -23 4 -25 40 -25 l40 0 0 -100 0 -100 30 0 30 0 0 99 0
100 38 3 c29 2 37 7 37 23 0 19 -8 20 -107 23 l-108 3 0 -26z"/>
</g>
</svg>
